<?xml version="1.0" encoding="UTF-8"?><svg id="Layer_2" xmlns="http://www.w3.org/2000/svg" viewBox="0 0 524.11 150"><defs><style>.cls-1{fill:#eee9e5;}</style></defs><g id="Layer_1-2"><path class="cls-1" d="M248.38,145c-3.13,0-6.02-.59-8.66-1.78-2.64-1.19-4.88-2.81-6.72-4.87-1.84-2.06-3.18-4.37-4.03-6.92l5.78-2.35c1.21,3.22,3.01,5.7,5.41,7.42,2.39,1.72,5.2,2.59,8.43,2.59,1.97,0,3.69-.31,5.17-.94,1.48-.63,2.63-1.51,3.46-2.65.83-1.14,1.24-2.47,1.24-4,0-2.1-.59-3.76-1.78-4.97-1.19-1.21-2.92-2.15-5.2-2.82l-9.2-2.82c-3.63-1.12-6.41-2.88-8.36-5.27-1.95-2.39-2.92-5.18-2.92-8.36,0-2.73.67-5.14,2.01-7.22,1.34-2.08,3.19-3.72,5.54-4.9,2.35-1.19,5.03-1.78,8.02-1.78s5.72.54,8.16,1.61c2.44,1.07,4.51,2.52,6.21,4.33,1.7,1.81,2.95,3.88,3.76,6.21l-5.71,2.35c-1.03-2.78-2.63-4.9-4.8-6.38-2.17-1.48-4.69-2.22-7.55-2.22-1.79,0-3.37.3-4.73.91-1.37.6-2.42,1.49-3.16,2.65-.74,1.16-1.11,2.51-1.11,4.03,0,1.84.58,3.47,1.75,4.9,1.16,1.43,2.93,2.53,5.31,3.29l8.39,2.48c3.94,1.21,6.92,2.93,8.93,5.17,2.01,2.24,3.02,5.01,3.02,8.33,0,2.73-.71,5.15-2.12,7.25-1.41,2.1-3.36,3.75-5.84,4.94-2.48,1.19-5.38,1.78-8.7,1.78Z"/><path class="cls-1" d="M272.15,102.22v-8.06h6.31v8.06h-6.31ZM272.15,144.19v-36.2h6.31v36.2h-6.31Z"/><path class="cls-1" d="M286.39,144.19v-36.2h6.18v7.39l-.87-1.07c.9-2.33,2.33-4.1,4.3-5.3,1.97-1.21,4.19-1.81,6.65-1.81,2.82,0,5.36.78,7.62,2.35,2.26,1.57,3.82,3.63,4.67,6.18l-1.75.07c.94-2.82,2.53-4.96,4.77-6.41,2.24-1.45,4.72-2.18,7.45-2.18,2.51,0,4.78.58,6.82,1.75,2.04,1.16,3.66,2.78,4.87,4.84,1.21,2.06,1.81,4.39,1.81,6.98v23.44h-6.31v-21.42c0-2.01-.36-3.72-1.07-5.1-.72-1.39-1.7-2.46-2.95-3.22-1.25-.76-2.69-1.14-4.3-1.14s-3.06.38-4.33,1.14c-1.28.76-2.28,1.85-3.02,3.26-.74,1.41-1.11,3.1-1.11,5.07v21.42h-6.31v-21.42c0-2.01-.36-3.72-1.07-5.1-.72-1.39-1.69-2.46-2.92-3.22-1.23-.76-2.68-1.14-4.33-1.14s-3.06.38-4.33,1.14c-1.28.76-2.28,1.85-3.02,3.26-.74,1.41-1.11,3.1-1.11,5.07v21.42h-6.31Z"/><path class="cls-1" d="M358.91,145c-2.64,0-4.99-.6-7.05-1.81-2.06-1.21-3.67-2.9-4.84-5.07-1.16-2.17-1.75-4.67-1.75-7.49v-22.63h6.31v21.96c0,1.79.37,3.36,1.11,4.7.74,1.34,1.77,2.4,3.09,3.16,1.32.76,2.83,1.14,4.53,1.14s3.21-.38,4.53-1.14c1.32-.76,2.35-1.86,3.09-3.29.74-1.43,1.11-3.13,1.11-5.1v-21.42h6.31v36.2h-6.11v-7.05l.94.6c-.85,2.28-2.28,4.06-4.3,5.34-2.01,1.28-4.34,1.91-6.98,1.91Z"/><path class="cls-1" d="M383.29,144.19v-50.84h6.31v50.84h-6.31Z"/><path class="cls-1" d="M408.2,145c-2.37,0-4.48-.44-6.31-1.31-1.84-.87-3.27-2.08-4.3-3.63-1.03-1.54-1.54-3.32-1.54-5.34s.42-3.66,1.28-5.2c.85-1.54,2.16-2.85,3.93-3.93,1.77-1.07,4-1.84,6.68-2.28l13.36-2.22v5.24l-11.95,2.08c-2.33.4-4.02,1.13-5.07,2.18-1.05,1.05-1.58,2.36-1.58,3.93,0,1.48.59,2.71,1.78,3.69,1.19.99,2.67,1.48,4.47,1.48,2.28,0,4.26-.48,5.94-1.44,1.68-.96,2.99-2.27,3.93-3.93.94-1.66,1.41-3.47,1.41-5.44v-9.27c0-1.97-.72-3.57-2.15-4.8-1.43-1.23-3.34-1.85-5.71-1.85-2.06,0-3.88.54-5.47,1.61-1.59,1.07-2.76,2.46-3.53,4.16l-5.44-2.82c.67-1.66,1.75-3.14,3.22-4.47,1.48-1.32,3.2-2.36,5.17-3.12,1.97-.76,4.03-1.14,6.18-1.14,2.78,0,5.21.53,7.32,1.58,2.1,1.05,3.75,2.52,4.94,4.4,1.19,1.88,1.78,4.03,1.78,6.45v24.58h-6.11v-6.85l1.14.47c-.76,1.39-1.8,2.63-3.12,3.73-1.32,1.1-2.84,1.95-4.57,2.55-1.72.6-3.62.91-5.67.91Z"/><path class="cls-1" d="M451.32,145c-3.58,0-6.74-.83-9.47-2.48-2.73-1.66-4.89-3.92-6.48-6.78-1.59-2.86-2.38-6.09-2.38-9.67s.78-6.85,2.35-9.67c1.57-2.82,3.73-5.06,6.48-6.72,2.75-1.66,5.92-2.48,9.5-2.48,2.37,0,4.59.43,6.65,1.28,2.06.85,3.87,2,5.44,3.46,1.57,1.46,2.71,3.12,3.42,5l-5.57,2.75c-.85-1.92-2.15-3.47-3.89-4.63-1.75-1.16-3.76-1.75-6.04-1.75s-4.17.55-5.94,1.65c-1.77,1.1-3.17,2.62-4.2,4.57-1.03,1.95-1.54,4.15-1.54,6.62s.51,4.6,1.54,6.55c1.03,1.95,2.43,3.48,4.2,4.6,1.77,1.12,3.75,1.68,5.94,1.68s4.29-.59,6.01-1.78c1.72-1.19,3.03-2.76,3.93-4.73l5.57,2.82c-.72,1.88-1.86,3.55-3.42,5-1.57,1.46-3.38,2.61-5.44,3.46-2.06.85-4.28,1.28-6.65,1.28Z"/><path class="cls-1" d="M473.28,144.19v-36.2h6.18v6.65l-.67-.94c.85-2.06,2.15-3.59,3.9-4.6,1.75-1.01,3.87-1.51,6.38-1.51h2.22v5.98h-3.16c-2.55,0-4.61.78-6.18,2.35-1.57,1.57-2.35,3.81-2.35,6.72v21.56h-6.31Z"/><path class="cls-1" d="M505.78,145c-2.37,0-4.48-.44-6.31-1.31-1.84-.87-3.27-2.08-4.3-3.63-1.03-1.54-1.54-3.32-1.54-5.34s.42-3.66,1.28-5.2c.85-1.54,2.16-2.85,3.93-3.93,1.77-1.07,4-1.84,6.68-2.28l13.36-2.22v5.24l-11.95,2.08c-2.33.4-4.02,1.13-5.07,2.18-1.05,1.05-1.58,2.36-1.58,3.93,0,1.48.59,2.71,1.78,3.69,1.19.99,2.67,1.48,4.47,1.48,2.28,0,4.26-.48,5.94-1.44,1.68-.96,2.99-2.27,3.93-3.93.94-1.66,1.41-3.47,1.41-5.44v-9.27c0-1.97-.72-3.57-2.15-4.8-1.43-1.23-3.34-1.85-5.71-1.85-2.06,0-3.88.54-5.47,1.61-1.59,1.07-2.76,2.46-3.53,4.16l-5.44-2.82c.67-1.66,1.75-3.14,3.22-4.47,1.48-1.32,3.2-2.36,5.17-3.12,1.97-.76,4.03-1.14,6.18-1.14,2.78,0,5.21.53,7.32,1.58,2.1,1.05,3.75,2.52,4.94,4.4,1.19,1.88,1.78,4.03,1.78,6.45v24.58h-6.11v-6.85l1.14.47c-.76,1.39-1.8,2.63-3.12,3.73-1.32,1.1-2.84,1.95-4.57,2.55-1.72.6-3.62.91-5.67.91Z"/><path class="cls-1" d="M261.21,51.56c-.14.78-.35,1.56-.57,2.34,2.48,2.13,5.32,4.75,6.66,6.59l-3.47,4.32c-1.06-1.56-3.12-3.68-5.1-5.67-1.91,3.83-5.03,7.65-9.78,10.98-.85-1.2-2.55-2.83-3.83-3.75,6.88-4.33,9.57-9.78,10.7-14.81h-9v-5.25h9.64c.07-.78.07-1.56.07-2.2v-5.1h-2.41c-.92,2.48-2.13,4.82-3.33,6.59-.92-.78-3.05-2.2-4.25-2.83.57-.85,1.13-1.77,1.63-2.76l-5.53,2.12v20.77c0,3.19-.64,4.89-2.34,5.81-1.84.99-4.54,1.28-8.72,1.21-.14-1.49-.85-4.11-1.7-5.81,2.62.07,5.1.07,5.81,0,.85,0,1.13-.29,1.13-1.14v-18.57l-6.17,2.27-1.7-6.31c2.27-.7,4.96-1.63,7.86-2.69v-12.76h-6.8v-6.09h6.8V5h5.81v13.82h5.1v6.09h-5.1v10.77l5.18-1.92.99,4.96c1.49-3.26,2.41-7.02,3.12-10.84l4.96,1.06c-.35,1.63-.64,3.33-1.14,4.96h12.12v5.1h-6.02v5.18c0,.63,0,1.34-.07,2.12h6.88v5.25h-7.44ZM256.25,27.39c-5.6,0-6.94-2.13-6.94-7.73V5.07h5.46v6.17h11.83v4.89h-11.83v3.62c0,2.05.28,2.69,1.63,2.69h7.3c1.2,0,3.19-.14,4.25-.35.14,1.41.29,3.61.57,4.89-1.06.36-2.91.43-4.68.43h-7.58ZM284.03,63.46c1.28.28,2.55.35,3.97.35,1.21,0,5.81,0,7.58-.07-.71,1.35-1.42,3.83-1.63,5.25h-6.38c-6.17,0-11.06-1.56-14.53-8.22-1.13,3.62-2.76,6.73-4.96,9.43-.85-.85-2.97-2.48-4.18-3.05,5.31-5.89,6.59-15.09,6.88-26.43l5.03.28c-.14,4.47-.5,8.57-1.06,12.33,1.06,3.54,2.48,5.88,4.11,7.51v-25.23h-10.14v-5.32h16.8c-3.19-3.12-9.43-7.65-14.24-10.7l3.76-3.61c1.63.99,3.33,2.05,5.17,3.26,1.77-1.98,3.68-4.54,5.17-6.88h-15.66v-5.17h19.21l.99-.36,3.75,2.55c-2.34,4.47-5.88,9.15-9.21,12.76,1.98,1.49,3.83,2.91,5.1,4.11l-3.76,4.04h4.46l.78-.21,3.19.85c-.78,4.25-1.77,9.28-2.76,12.47l-3.97-1.06c.43-1.77.92-4.25,1.28-6.73h-4.75v10.42h8.86v5.31h-8.86v12.12Z"/><path class="cls-1" d="M329.64,48.87c-1.42-1.98-4.11-5.17-6.52-7.93v29.12h-6.38v-27.5c-2.91,2.76-6.02,5.25-9,7.16-.5-1.78-1.91-5.25-2.76-6.52,7.44-4.25,14.95-12.05,19.49-20.27h-17.5v-5.95h13.11c-1.35-2.56-3.76-6.02-5.95-8.57l4.96-3.12c2.55,2.63,5.25,6.31,6.45,8.79l-4.25,2.91h6.66l1.21-.29,3.54,2.48c-2.13,5.31-5.1,10.35-8.57,14.96,2.84,2.62,8.22,7.86,9.64,9.28l-4.11,5.46ZM364.43,64.03c1.28,0,1.56-.99,1.77-8.5,1.21,1.06,3.76,2.05,5.46,2.48-.57,9.43-2.12,11.77-6.59,11.77h-5.31c-5.31,0-6.59-1.84-6.59-7.73v-15.45h-5.17c-1.06,11.55-4.11,19.28-16.87,23.67-.64-1.49-2.27-3.76-3.47-4.82,11.27-3.47,13.54-9.57,14.39-18.85h-5.52V8.05h30.76v38.55h-7.94v15.38c0,1.77.14,2.05,1.42,2.05h3.68ZM342.54,19.17h18.43v-5.81h-18.43v5.81ZM342.54,30.23h18.43v-5.95h-18.43v5.95ZM342.54,41.28h18.43v-6.02h-18.43v6.02Z"/><path class="cls-1" d="M405.65,48.37c-.99-2.12-3.4-6.09-5.53-9.35v30.97h-6.38v-28.7c-2.62,6.45-5.81,12.48-9.07,16.51-.64-1.77-2.2-4.47-3.19-6.1,4.18-4.82,8.72-13.25,11.34-20.76h-10.42v-6.17h11.34v-9.49c-3.05.57-6.1.99-8.93,1.41-.21-1.41-1.13-3.75-1.84-5.1,7.94-1.28,17.01-3.33,22.54-5.74l3.76,5.39c-2.69,1.06-5.81,1.91-9.14,2.69v10.84h9.92v6.17h-9.92v.99c2.13,2.2,8.15,9.42,9.5,11.27l-3.97,5.17ZM438.88,51.84v18.14h-6.52v-17.01l-22.32,3.76-.99-6.31,23.31-3.89V5h6.52v40.47l7.72-1.28.99,6.16-8.72,1.49ZM423.44,42.28c-2.34-3.05-7.51-7.58-11.83-10.56l4.18-3.83c4.25,2.83,9.64,7.09,12.12,10.06l-4.47,4.32ZM425.21,23.64c-2.13-2.98-6.95-7.3-10.99-10.28l4.32-3.76c4.04,2.76,8.93,6.88,11.27,9.85l-4.6,4.18Z"/><path class="cls-1" d="M482.3,41.5c-2.69.78-5.39,1.56-8.08,2.34v18.64c0,3.4-.71,5.18-2.76,6.17-2.06.99-5.25,1.2-10.06,1.13-.29-1.56-1.13-4.32-1.98-5.95,3.12.08,6.09.08,6.94,0,.99,0,1.42-.35,1.42-1.34v-16.8c-2.76.78-5.31,1.49-7.8,2.13l-1.7-6.31c2.69-.64,5.95-1.42,9.49-2.27v-14.25h-8.72v-6.09h8.72V5.07h6.45v13.82h7.44v6.09h-7.44v12.48l7.23-1.92.85,5.95ZM520.5,32.85c-2.84,9.77-7.58,17.5-13.82,23.46,4.89,3.68,10.7,6.45,17.43,8.22-1.49,1.28-3.33,3.9-4.25,5.6-7.09-2.05-13.18-5.31-18.28-9.56-5.74,4.25-12.33,7.37-19.42,9.42-.71-1.7-2.34-4.54-3.54-5.95,6.59-1.63,12.83-4.32,18.21-8.08-4.61-5.1-8.29-11.19-10.98-18.28l.92-.28h-2.83v-6.02h14.6v-9.71h-15.87v-6.02h15.87V5h6.52v10.63h16.37v6.02h-16.37v9.71h10.06l1.13-.21,4.25,1.7ZM492.29,37.39c2.27,5.6,5.46,10.42,9.49,14.59,4.39-4.04,8.01-8.93,10.35-14.59h-19.84Z"/><path class="cls-1" d="M143.34,0h0s-62.69,0-62.69,0h0S27.09,0,27.09,0h0s-27.09,0-27.09,0v64.47h0v85.53h187.5V0h-44.16ZM83.64,144c8.84-18.94,14.14-42.71,14.2-68.54l-62.21-6.99h0v13.05c-.4,23.49-2.97,45.03-7.04,62.48H6v-78.86l29.62,3.33h0c-.4-23.48-2.97-45.02-7.04-62.47h55.05c8.9,19.06,14.21,42.99,14.21,69,0,.15,0,.31,0,.46l54.1,6.08v-6.54c0-2.19-.02-4.37-.06-6.53-.4-23.48-2.97-45.02-7.04-62.47h36.66v78.86l-29.63-3.33c-.4,23.48-2.97,45.02-7.04,62.47h-61.2Z"/></g></svg>